<svg id="Layer_1" data-name="Layer 1" xmlns="http://www.w3.org/2000/svg" viewBox="0 0 1280 769"><defs><style>.cls-1{fill:#fdc503;}</style></defs><rect class="cls-1" x="-12.29" y="-1.35" width="1304.59" height="771.71"/><path d="M393.81,421l-18.12,32.82h-155V421l99.52-72.87H220.65v-33H384.93v33L284.7,421H393.81Z"/><path d="M525.22,315.15H468.07L392,453.85h49.74l55.41-103.41,55.41,103.41h48Z"/><path d="M671.68,453.84H628.44V347.26H567.57l-18.21-32.11H865.18v32.11H671.68Z"/><path d="M750.66,420.32c-4.23,0-7.32-.77-9.26-2.29a7.5,7.5,0,0,1-2.92-6.18L738,400.91V368.09l.3-6.69H700.9v54.15q0,18.9,11,28.59t34,9.71H865.18V420.32Z"/><path d="M1016.12,315.15v49.94H958.39v37.06h57.73v51.7h43.23V315.15Zm-135.7,138.7h43.23V315.15H880.42Z"/><polygon points="494.51 381.2 470.87 423.68 494.51 423.68 494.51 453.84 518.67 411.17 494.51 411.17 494.51 381.2"/></svg>